<svg id="圖層_1" data-name="圖層 1" xmlns="http://www.w3.org/2000/svg" viewBox="0 0 320 200"><defs><style>.cls-1,.cls-3,.cls-4,.cls-7{fill:#7b2cbf;}.cls-2,.cls-3,.cls-4,.cls-7{isolation:isolate;}.cls-3,.cls-4,.cls-7{font-size:30.32px;font-family:Export;}.cls-4{letter-spacing:-0.03em;}.cls-5{letter-spacing:-0.02em;}.cls-6{letter-spacing:0em;}.cls-7{letter-spacing:-0.02em;}.cls-8{fill:#9d4edd;fill-opacity:0;}</style></defs><path class="cls-1" d="M959.25,482a40,40,0,1,0,40,40v0A40,40,0,0,0,959.25,482Zm6.2,71a7.16,7.16,0,0,1-12.4,0l-24.16-41.84a6.36,6.36,0,0,1,5.52-9.56h49.68a6.38,6.38,0,0,1,5.52,9.56Z" transform="translate(-799.25 -439.82)"/><g class="cls-2"><text class="cls-3" transform="translate(13.57 177.59)">Re</text><text class="cls-4" transform="translate(49.35 177.59)">a<tspan class="cls-5" x="17.74" y="0">c</tspan></text><text class="cls-3" transform="translate(86.04 177.59)">t cool vi</text><text class="cls-3" transform="translate(217.01 177.59)"><tspan class="cls-6">r</tspan><tspan x="18.4" y="0">t</tspan></text><text class="cls-7" transform="translate(252.91 177.59)">u</text><text class="cls-3" transform="translate(272.14 177.59)">al</text></g><rect class="cls-8" width="320" height="200"/></svg>