<svg xmlns="http://www.w3.org/2000/svg" viewBox="0 0 570 150"><defs><style>.cls-1{fill:#7b2cbf;}.cls-2{fill:#fff;}</style></defs><g id="圖層_2" data-name="圖層 2"><g id="圖層_1-2" data-name="圖層 1"><rect class="cls-1" width="570" height="150"/><path class="cls-2" d="M284.45,25a31.24,31.24,0,1,0,31.24,31.24A31.24,31.24,0,0,0,284.45,25Zm22.72,23.91a264.46,264.46,0,0,0-17.91,31l-1.93,3.92a3.32,3.32,0,0,1-5.76,0l-1-2a264,264,0,0,0-19.87-34.43l-1.32-1.93a3.33,3.33,0,0,1,2.88-5l4.26.29a267.31,267.31,0,0,0,35.8,0l4.26-.29a3.33,3.33,0,0,1,2.88,5Z"/><path class="cls-2" d="M174.46,125c-.15,0-.2,0-.3-.17-.95-1.6-3.7-5.6-4.93-7.47,0,1.4,0,5.55.08,7.37,0,.1-.05.18-.3.2-.5,0-1.43,0-2,0a9,9,0,0,1-1.43,0c-.12,0-.15-.05-.15-.12,0-2.55.1-5.93.13-9.1s0-6.09,0-7.92c0-.15,0-.27.12-.27.4,0,2.62-.15,5.47-.15a30.09,30.09,0,0,1,3.77.15,1.37,1.37,0,0,1,.65.2,5.53,5.53,0,0,1,2.75,5c0,2.58-1.22,4.28-4.34,5.57,1.24,1.85,3.82,5.28,4.54,6.48.1.15,0,.17-.25.17l-1.45,0C176.3,124.93,175.5,125,174.46,125Zm-5.2-11.59c0,.78,0,1.5,0,2.1.72,0,1.72-.07,2.72-.07a25.09,25.09,0,0,1,2.6.1c0-.48,0-1.13,0-1.83,0-1.12,0-2.35.1-3.12a7.51,7.51,0,0,0-.84,0c-.9,0-2.13,0-3,0-.68,0-1.18,0-1.55,0C169.23,111.28,169.26,112.36,169.26,113.38Z"/><path class="cls-2" d="M191.82,107.49a21.74,21.74,0,0,1,0,3.12.12.12,0,0,1-.12.13c-2.23,0-5.15,0-7.17,0,0,.85,0,2.32-.05,3.62a13.16,13.16,0,0,0,1.65.08c1.37,0,2.77,0,3.92,0,.85,0,1.25,0,1.42,0s.23.07.25.5.13,1.9.13,2.6c0,.2-.08.27-.23.27-2.3,0-4.79-.22-7.24-.15a38,38,0,0,1,0,3.9c1,0,2.88.07,4.37.07,1.65,0,2.1-.07,2.55-.07.23,0,.3,0,.33.25a8.61,8.61,0,0,1,.07,1.32c0,.58,0,1,0,1.4,0,.23-.05.3-.38.32-1.1.11-3.34,0-4.09,0l-6.32,0c-.2,0-.25-.14-.25-.37,0-4,.17-9.09.17-12.69,0-2.67-.05-3.7-.05-4.07,0-.15,0-.28.15-.3s3.15,0,5.07,0c4.17,0,5.17-.07,5.52-.07C191.72,107.34,191.79,107.36,191.82,107.49Z"/><path class="cls-2" d="M197,125c-.32,0-.62,0-1.17,0-.92,0-1.6,0-2.05-.05-.12,0-.15-.07-.1-.25,1.35-4.75,3.85-12.22,5.4-16.86.1-.28.15-.35.3-.35,1,0,2.67,0,3.17-.08.25,0,.35,0,.4.18,2.65,7.42,3.5,10.61,5.4,17.11,0,.15,0,.22-.05.25a2.66,2.66,0,0,1-.8.08c-.48,0-1.15-.05-2.15-.05-.6,0-.75,0-.8-.18-.38-1.52-.58-2.42-.8-3.55-.8,0-1.75,0-3.3,0l-2.17,0c-.38,1.47-.63,2.47-.93,3.57C197.34,124.88,197.29,125,197,125Zm2.13-6.8c1.25,0,2.55-.05,3.72-.05-.65-2.49-1.37-5-1.77-6.69C200.64,113.06,199.86,115.43,199.14,118.15Z"/><path class="cls-2" d="M213.13,107.39c.7,0,1.67,0,2.89,0,1.58,0,2.75,0,3.28,0a1.72,1.72,0,0,1,.82.25c2.4,1.2,2.68,4.32,2.68,6.44,0,.18-.15.23-.38.23-.92,0-2,.05-3.1.05-.12,0-.2-.05-.2-.15,0-.75,0-2.35.08-3.52-1.13,0-2.18,0-3.18,0-.84,0-1.67,0-2.59-.08,0,1.62.07,3.27.07,5,0,2-.05,4.09-.12,6,.82,0,2.1-.1,3.37-.1.87,0,1.75,0,2.5.1-.05-.9,0-2.3,0-3.37,0-.08.08-.13.15-.15l3.35,0c.15,0,.22,0,.22.18,0,2.85-.77,4.9-2.89,6.47a1,1,0,0,1-.58.2c-2.15,0-4.82-.05-6.14,0a.93.93,0,0,1-.7-.23c-2.8-2.35-3-4.92-3-8.57,0-3.47.67-6.44,2.67-8.34A1,1,0,0,1,213.13,107.39Z"/><path class="cls-2" d="M237.51,109.16a10.33,10.33,0,0,1-.08,1.43c0,.12-.15.17-1.44.17s-2.55-.1-3.55-.1c0,2.07-.08,4.65-.08,7.19,0,2.38,0,4.78.2,6.88,0,.09,0,.15-.1.15-.82.05-2.74.07-3.64.07,0,0-.08,0-.08-.07,0-1.33,0-2.65,0-4,0-3.32-.05-6.7-.13-10.2-1.67.1-3.17,0-4.45.06-.1,0-.12,0-.12-.13s.05-.6.05-1.12c0-.73-.05-1.45-.05-2,0-.15.05-.22.2-.22,1.32,0,3.72.1,6.19.1,2.95,0,5.1.1,6.92.1.08,0,.1,0,.1.12S237.51,108.44,237.51,109.16Z"/><path class="cls-2" d="M247.8,107.39c.7,0,1.68,0,2.9,0,1.57,0,2.75,0,3.27,0a1.72,1.72,0,0,1,.83.25c2.4,1.2,2.67,4.32,2.67,6.44,0,.18-.15.23-.37.23-.93,0-2,.05-3.1.05-.13,0-.2-.05-.2-.15,0-.75,0-2.35.07-3.52-1.12,0-2.17,0-3.17,0-.85,0-1.67,0-2.6-.08.05,1.62.08,3.27.08,5,0,2-.05,4.09-.13,6,.83,0,2.1-.1,3.37-.1.88,0,1.75,0,2.5.1,0-.9,0-2.3,0-3.37,0-.08.07-.13.15-.15l3.34,0c.15,0,.23,0,.23.18,0,2.85-.77,4.9-2.9,6.47a1,1,0,0,1-.57.2c-2.15,0-4.82-.05-6.15,0a.94.94,0,0,1-.7-.23c-2.8-2.35-3-4.92-3-8.57,0-3.47.68-6.44,2.68-8.34A1,1,0,0,1,247.8,107.39Z"/><path class="cls-2" d="M263.34,107.34c2.05,0,4,.07,6.47.12a.87.87,0,0,1,.63.23c2.42,1.7,3,4.24,3,8.72,0,3.89-.73,6.74-3,8.37-.2.12-.33.15-1.5.15s-2.63-.05-3.95-.05-1.95.07-2.12.07-.23,0-.4-.2c-2.08-1.85-2.65-4.75-2.65-8.47,0-4.8.87-6.79,3.12-8.77A.59.59,0,0,1,263.34,107.34Zm3.27,14.26c1.08,0,2.13,0,3.08.05-.08-1.62-.1-3.32-.1-5,0-2.12.07-4.27.15-6-.58,0-1.33,0-2.05,0-1.55,0-3.2,0-4.17-.12,0,1.27.1,4.24.1,5.82,0,2.37-.1,3.47-.15,5.32C264.46,121.63,265.54,121.6,266.61,121.6Z"/><path class="cls-2" d="M279.43,107.34c2.05,0,4,.07,6.47.12a.86.86,0,0,1,.62.23c2.43,1.7,3,4.24,3,8.72,0,3.89-.73,6.74-3,8.37-.2.12-.32.15-1.5.15s-2.62-.05-3.94-.05-1.95.07-2.13.07-.22,0-.4-.2c-2.07-1.85-2.64-4.75-2.64-8.47,0-4.8.87-6.79,3.12-8.77A.59.59,0,0,1,279.43,107.34Zm3.27,14.26c1.08,0,2.13,0,3.07.05-.07-1.62-.1-3.32-.1-5,0-2.12.08-4.27.15-6-.57,0-1.32,0-2,0-1.55,0-3.2,0-4.18-.12,0,1.27.1,4.24.1,5.82,0,2.37-.1,3.47-.15,5.32C280.55,121.63,281.63,121.6,282.7,121.6Z"/><path class="cls-2" d="M292.72,124.93c-.18,0-.23-.05-.23-.18.05-2,.08-4.15.08-6.32,0-3.62-.08-7.35-.18-10.74,0-.15.08-.28.18-.28,1.2,0,2.07-.07,3.37-.07.18,0,.28,0,.28.45,0,.77,0,1.82,0,3.89,0,2.9,0,8.1-.1,9.8,1.07,0,2.1,0,3.19,0s2.05,0,3.33-.1c.2,0,.27,0,.27.17,0,1.18,0,1.8,0,3.08,0,.14-.05.22-.45.22-2,0-3.65-.08-4.43-.08C296.57,124.82,293.59,124.93,292.72,124.93Z"/><path class="cls-2" d="M314.78,125c-.25,0-.28,0-.33-.2-2-6.55-3.74-11.92-5.49-17-.1-.3-.08-.37.2-.37l1.72,0,1.72,0c.15,0,.23,0,.25.15.58,2.1,2.48,8.72,3.45,12.37.95-4,3.1-10.62,3.5-12.24.05-.2.12-.23.65-.23.82,0,2.4,0,3.07,0,.13,0,.15.05.13.15-2.28,6.65-3.83,11.29-5.67,17.17,0,.1-.08.15-.23.15C317,124.93,315.53,125,314.78,125Z"/><path class="cls-2" d="M327.72,107.39c.57,0,1.1,0,1.67,0,.15,0,.23,0,.23.1,0,1.58,0,3.1,0,5.6,0,3.47.05,8.84.08,11.67,0,.12-.1.17-.53.17-.92,0-2.07-.05-3.17-.08-.1,0-.15,0-.15-.14,0-1.53.1-4.1.1-8.15,0-2.45,0-4.12-.2-9.07,0-.07,0-.12.15-.12S327.07,107.39,327.72,107.39Z"/><path class="cls-2" d="M342.06,125c-.15,0-.2,0-.3-.17-.95-1.6-3.7-5.6-4.92-7.47,0,1.4,0,5.55.07,7.37,0,.1-.05.18-.3.2-.5,0-1.42,0-2,0a9,9,0,0,1-1.43,0c-.12,0-.15-.05-.15-.12,0-2.55.1-5.93.13-9.1s0-6.09,0-7.92c0-.15,0-.27.12-.27.4,0,2.63-.15,5.48-.15a30.28,30.28,0,0,1,3.77.15,1.41,1.41,0,0,1,.65.2,5.54,5.54,0,0,1,2.75,5c0,2.58-1.23,4.28-4.35,5.57,1.25,1.85,3.82,5.28,4.54,6.48.11.15,0,.17-.24.17l-1.45,0C343.91,124.93,343.11,125,342.06,125Zm-5.2-11.59c0,.78,0,1.5-.05,2.1.73,0,1.73-.07,2.72-.07a25.09,25.09,0,0,1,2.6.1c0-.48,0-1.13,0-1.83,0-1.12,0-2.35.1-3.12a7.9,7.9,0,0,0-.85,0c-.9,0-2.12,0-3,0-.67,0-1.17,0-1.55,0C336.84,111.28,336.86,112.36,336.86,113.38Z"/><path class="cls-2" d="M360.57,109.16a10.62,10.62,0,0,1-.07,1.43c0,.12-.15.17-1.45.17s-2.55-.1-3.55-.1c0,2.07-.08,4.65-.08,7.19,0,2.38.05,4.78.2,6.88,0,.09,0,.15-.1.15-.82.05-2.74.07-3.64.07-.05,0-.08,0-.08-.07,0-1.33,0-2.65,0-4,0-3.32-.05-6.7-.13-10.2-1.67.1-3.17,0-4.45.06-.1,0-.12,0-.12-.13s.05-.6.05-1.12c0-.73-.05-1.45-.05-2,0-.15.05-.22.2-.22,1.32,0,3.72.1,6.2.1,2.94,0,5.09.1,6.92.1.07,0,.1,0,.1.12S360.57,108.44,360.57,109.16Z"/><path class="cls-2" d="M368.19,121.53c1.5,0,3.27,0,3.62.07,0-4.27-.07-7.92-.07-9.67s.15-4.12.15-4.39c0-.1.05-.15.2-.15l3.42,0c.22,0,.22.15.22,1,0,2.17-.22,7-.22,10.71s-1.77,5-3.2,5.7a1.67,1.67,0,0,1-.7.2c-1.17,0-2.67-.15-5-.15-.2,0-.42,0-.6,0a1.4,1.4,0,0,1-.6-.15c-1.85-1.23-2.82-3.15-2.82-6.77,0-2.48-.05-2.95-.05-4.68,0-2,.07-3.84.07-5.74,0-.15.05-.2.15-.2l2.28,0,1.1,0c.15,0,.2,0,.2.12,0,4.22-.18,10.69-.25,14.12C366.29,121.55,367.19,121.53,368.19,121.53Z"/><path class="cls-2" d="M380.56,125c-.33,0-.63,0-1.18,0-.92,0-1.6,0-2.05-.05-.12,0-.15-.07-.1-.25,1.35-4.75,3.85-12.22,5.4-16.86.1-.28.15-.35.3-.35.95,0,2.67,0,3.17-.08.25,0,.35,0,.4.18,2.65,7.42,3.5,10.61,5.4,17.11.05.15,0,.22,0,.25a2.66,2.66,0,0,1-.8.08c-.48,0-1.15-.05-2.15-.05-.6,0-.75,0-.8-.18-.37-1.52-.57-2.42-.8-3.55-.8,0-1.75,0-3.3,0l-2.17,0c-.37,1.47-.62,2.47-.92,3.57C380.88,124.88,380.83,125,380.56,125Zm2.12-6.8c1.25,0,2.55-.05,3.72-.05-.65-2.49-1.37-5-1.77-6.69C384.18,113.06,383.4,115.43,382.68,118.15Z"/><path class="cls-2" d="M394.27,124.93c-.17,0-.22-.05-.22-.18.05-2,.07-4.15.07-6.32,0-3.62-.07-7.35-.17-10.74,0-.15.07-.28.17-.28,1.2,0,2.07-.07,3.37-.07.18,0,.28,0,.28.45,0,.77.05,1.82.05,3.89,0,2.9-.05,8.1-.1,9.8,1.07,0,2.1,0,3.2,0s2,0,3.32-.1c.2,0,.27,0,.27.17,0,1.18,0,1.8,0,3.08,0,.14-.05.22-.45.22-1.95,0-3.65-.08-4.42-.08C398.12,124.82,395.15,124.93,394.27,124.93Z"/></g></g></svg>